<svg width="100%" height="200" viewBox="0 0 800 200" xmlns="http://www.w3.org/2000/svg">
  <style>
    @keyframes float {
      0% { transform: translateY(0px); }
      50% { transform: translateY(-20px); }
      100% { transform: translateY(0px); }
    }
    @keyframes spin {
      0% { transform: rotateY(0deg); }
      100% { transform: rotateY(360deg); }
    }
    @keyframes gradient {
      0% { stop-color: #2980b9; }
      50% { stop-color: #8e44ad; }
      100% { stop-color: #2980b9; }
    }
    .cube {
      animation: float 6s ease-in-out infinite, spin 12s linear infinite;
      transform-origin: center;
      transform-style: preserve-3d;
    }
    .gradient-start {
      animation: gradient 8s ease-in-out infinite;
    }
    .gradient-end {
      animation: gradient 8s ease-in-out infinite reverse;
    }
    .text {
      animation: float 6s ease-in-out infinite;
    }
  </style>
  
  <defs>
    <linearGradient id="bgGradient" x1="0%" y1="0%" x2="100%" y2="0%">
      <stop offset="0%" class="gradient-start" stop-color="#2980b9" />
      <stop offset="50%" stop-color="#8e44ad" />
      <stop offset="100%" class="gradient-end" stop-color="#2980b9" />
    </linearGradient>
  </defs>
  
  <rect width="100%" height="100%" fill="#f6f8fa" />
  
  <!-- 3D Cubes -->
  <g class="cube" transform="translate(100, 100)">
    <polygon points="0,0 30,-30 60,0 30,30" fill="url(#bgGradient)" opacity="0.8" />
    <polygon points="60,0 30,-30 30,-90 60,-60" fill="url(#bgGradient)" opacity="0.6" />
    <polygon points="0,0 30,-30 30,-90 0,-60" fill="url(#bgGradient)" opacity="0.4" />
  </g>
  
  <g class="cube" transform="translate(700, 100) scale(1.2)">
    <polygon points="0,0 30,-30 60,0 30,30" fill="url(#bgGradient)" opacity="0.8" />
    <polygon points="60,0 30,-30 30,-90 60,-60" fill="url(#bgGradient)" opacity="0.6" />
    <polygon points="0,0 30,-30 30,-90 0,-60" fill="url(#bgGradient)" opacity="0.4" />
  </g>
  
  <!-- Animated Text -->
  <g class="text" transform="translate(280, 110)">
    <text x="0" y="0" font-family="Arial, sans-serif" font-size="32" font-weight="bold" fill="#24292e">
      Software Engineering Excellence
    </text>
  </g>
  
  <!-- Connecting Lines with Animation -->
  <path d="M160 100 H280" stroke="url(#bgGradient)" stroke-width="2" stroke-dasharray="5,5">
    <animate attributeName="stroke-dashoffset" from="0" to="100" dur="3s" repeatCount="indefinite" />
  </path>
  
  <path d="M520 100 H640" stroke="url(#bgGradient)" stroke-width="2" stroke-dasharray="5,5">
    <animate attributeName="stroke-dashoffset" from="0" to="100" dur="3s" repeatCount="indefinite" />
  </path>
</svg>